<svg xmlns="http://www.w3.org/2000/svg" viewBox="0 0 1422.44 640.87"><defs><style>.cls-1,.cls-3{fill:#ffed00;}.cls-2{fill:#fff;}.cls-3{font-size:147.94px;font-family:SimplonNorm-Bold, Simplon Norm;font-weight:700;}</style></defs><g id="Capa_2" data-name="Capa 2"><g id="Capa_1-2" data-name="Capa 1"><path class="cls-1" d="M662,560.77v.44c0,9,4.95,14.95,13.87,14.95,6.51,0,11-3.26,12.88-8.44h19c-3,16-14,26-31.84,26-21,0-32.55-13.91-32.55-35.06v-9.77c0-21.15,11.61-35.06,32.55-35.06s32.55,13.91,32.55,35.06v11.84Zm0-16.27v.14h27.6v-.14c-.57-8-5.38-13-13.73-13S662.66,536.65,662,544.5Z"/><path class="cls-1" d="M779.56,592.28H760.88V547.75c0-10.36-6.79-14.8-13.87-14.8s-13.87,4.44-13.87,14.8v44.53H714.46V515.94h18.68v6.66c3.26-5.18,10.62-8.73,17.13-8.73,14.86,0,29.29,10.65,29.29,33.14Z"/><path class="cls-1" d="M897.73,557.66c-.85,21.75-14.29,36.1-37.36,36.1-23.78,0-37.36-15.38-37.36-38.32V525.56c0-22.93,13.59-38.32,37.37-38.32,23.06,0,36.51,14.35,37.36,36.1H878.63c-1-10.51-8.63-16.42-18.26-16.42-10.33,0-18.39,6.65-18.4,18.64v29.88c0,12,8.07,18.65,18.4,18.65,9.62,0,17.27-5.78,18.26-16.43Z"/><path class="cls-1" d="M944.43,599.53c-4,11.54-5.09,20-18.11,20H912.45V601.9h7.78c3.4,0,4.39-1.78,5-3.4l2.12-6.22-26-76.34H921l16.27,48.68,16.28-48.68h19.67Z"/><path class="cls-1" d="M996.23,592.28H977.55V488.72h18.68V522.6c3.25-5.18,10.61-8.73,17.12-8.73,14.86,0,29.3,10.65,29.3,33.14v13.61c0,22.49-14.44,33.14-29.3,33.14-6.51,0-13.87-3.55-17.13-8.73ZM1024,547.75c0-10.36-6.79-14.8-13.86-14.8s-13.87,4.44-13.87,14.8v12.13c0,10.36,6.8,14.8,13.87,14.8s13.87-4.44,13.87-14.8Z"/><path class="cls-1" d="M1068.13,560.77v.44c0,9,4.95,14.95,13.87,14.95,6.51,0,11-3.26,12.88-8.44h19c-3,16-14,26-31.84,26-21,0-32.55-13.91-32.55-35.06v-9.77c0-21.15,11.61-35.06,32.55-35.06s32.55,13.91,32.55,35.06v11.84Zm0-16.27v.14h27.6v-.14c-.57-8-5.38-13-13.73-13S1068.84,536.65,1068.13,544.5Z"/><path class="cls-1" d="M1139.32,592.28h-18.68V515.94h18.68v8.29c2.12-5,8.35-9.62,17-9.62H1162v19.08h-8.77c-7.08,0-13.87,4.44-13.87,14.8Z"/><path class="cls-1" d="M1173.57,568.61h22.64v23.67h-22.64Zm20.66-7.4h-18.68V488.72h18.69Z"/><path class="cls-2" d="M893.2,175.23l-17.12-3a2.8,2.8,0,0,1-2.09-2.11l-2.85-16.89c-.09-.53-.23-1.07-.64-1.07s-.55.53-.65,1.06l-3.13,16.91a2.91,2.91,0,0,1-2.13,2.11l-16.77,3c-.53.1-1.07.25-1.07.66s.54.55,1.07.64l16.77,2.95a2.86,2.86,0,0,1,2.13,2.1l3.13,17c.1.53.25,1.07.65,1.07s.55-.55.64-1.08l2.85-17a2.8,2.8,0,0,1,2.09-2.1l17.12-2.95c.53-.1,1.07-.24,1.07-.64s-.54-.56-1.07-.65"/><path class="cls-2" d="M925.15,257.88l-22.72-4a3.69,3.69,0,0,1-2.77-2.79l-3.78-22.41c-.12-.71-.31-1.43-.85-1.43s-.74.72-.87,1.41L890,251.05a3.81,3.81,0,0,1-2.82,2.8l-22.26,4c-.7.13-1.42.33-1.41.86s.71.74,1.42.86l22.25,3.91a3.78,3.78,0,0,1,2.81,2.79l4.16,22.56c.13.7.34,1.41.87,1.41s.73-.72.85-1.42l3.78-22.55a3.68,3.68,0,0,1,2.77-2.78l22.71-3.93c.71-.12,1.43-.31,1.43-.85s-.72-.73-1.42-.85"/><path class="cls-2" d="M939.85,197.3A83.83,83.83,0,0,0,929.7,196c-2.43-.17-4.85-.28-7.28-.32.74-.79,1.47-1.59,2.18-2.4a56.6,56.6,0,0,0,4-5,56.38,56.38,0,0,0-5.06,4c-.81.71-1.6,1.44-2.39,2.18,0-2.43-.15-4.86-.32-7.28a81.91,81.91,0,0,0-1.3-10.15,83.83,83.83,0,0,0-1.29,10.15c-.17,2.42-.28,4.85-.32,7.27-.79-.74-1.59-1.46-2.4-2.17a54.85,54.85,0,0,0-5-4,54.85,54.85,0,0,0,4,5c.71.81,1.43,1.61,2.17,2.39-2.42,0-4.85.15-7.27.33a82,82,0,0,0-10.16,1.29,80.21,80.21,0,0,0,10.16,1.3q3.63.26,7.27.32c-.74.79-1.46,1.59-2.17,2.39a56.38,56.38,0,0,0-4,5.06,54.85,54.85,0,0,0,5-4c.81-.71,1.61-1.43,2.39-2.17.05,2.42.15,4.85.33,7.27a81.88,81.88,0,0,0,1.29,10.15,81.91,81.91,0,0,0,1.3-10.15c.17-2.42.28-4.85.32-7.27.79.73,1.58,1.46,2.39,2.17a58.22,58.22,0,0,0,5.06,4,56.6,56.6,0,0,0-4-5.05c-.71-.81-1.44-1.61-2.18-2.4,2.43,0,4.85-.15,7.28-.32a81.91,81.91,0,0,0,10.15-1.3"/><path class="cls-2" d="M1116.06,48.49l-16.54-16.71a83.15,83.15,0,0,0-118.44,0,85.26,85.26,0,0,0,0,119.69l16.53,16.71L1056.82,228c1.72,1.75,3.52,3.38,5.35,4.94,1.55,1.85,3.16,3.67,4.89,5.41l49,49.49,49-49.47c1.72-1.74,3.33-3.55,4.88-5.4,1.83-1.56,3.63-3.2,5.36-5L1251,151.49a85.25,85.25,0,0,0,0-119.68,83.14,83.14,0,0,0-118.44,0Z"/><path class="cls-2" d="M1419.88,453.27l-41-7.27a6.71,6.71,0,0,1-5-5l-6.81-40.44c-.22-1.27-.57-2.57-1.54-2.57s-1.33,1.29-1.56,2.55l-7.5,40.46a6.88,6.88,0,0,1-5.08,5.05l-40.15,7.25c-1.27.23-2.56.59-2.56,1.56s1.3,1.32,2.56,1.55l40.15,7.05a6.83,6.83,0,0,1,5.08,5l7.5,40.7c.23,1.26.6,2.55,1.56,2.55s1.32-1.3,1.53-2.58l6.83-40.67a6.64,6.64,0,0,1,5-5l41-7.08c1.27-.22,2.57-.57,2.57-1.53s-1.29-1.32-2.56-1.55"/><path class="cls-2" d="M1316.13,418.63l-25.39-4.51a4.16,4.16,0,0,1-3.1-3.13l-4.23-25.05c-.13-.78-.34-1.59-1-1.59s-.82.8-1,1.58L1276.85,411a4.28,4.28,0,0,1-3.15,3.13l-24.87,4.49c-.79.14-1.59.37-1.59,1s.81.82,1.59,1l24.87,4.37a4.24,4.24,0,0,1,3.15,3.12l4.65,25.22c.14.78.37,1.57,1,1.57s.82-.8,1-1.59l4.23-25.2a4.12,4.12,0,0,1,3.1-3.11l25.39-4.39c.78-.13,1.58-.35,1.59-.94s-.81-.83-1.59-1"/><path class="cls-2" d="M1365.16,333.55a149,149,0,0,0-18.32-2.33q-6.55-.47-13.12-.59,2-2.11,3.92-4.31a105.36,105.36,0,0,0,7.24-9.12,103.75,103.75,0,0,0-9.12,7.23q-2.19,1.94-4.32,3.93-.12-6.57-.59-13.13a147.3,147.3,0,0,0-2.33-18.32,149.22,149.22,0,0,0-2.33,18.32q-.46,6.57-.59,13.12-2.11-2-4.31-3.92a101.92,101.92,0,0,0-9.12-7.23,101.92,101.92,0,0,0,7.23,9.12q1.92,2.19,3.92,4.31-6.55.12-13.11.58a147.25,147.25,0,0,0-18.33,2.34,147.25,147.25,0,0,0,18.33,2.34q6.55.47,13.11.58-2,2.13-3.92,4.31a102.06,102.06,0,0,0-7.23,9.13,102,102,0,0,0,9.12-7.24q2.19-1.92,4.31-3.91.12,6.56.58,13.11a147.34,147.34,0,0,0,2.34,18.32,147.34,147.34,0,0,0,2.34-18.32q.47-6.56.59-13.12,2.11,2,4.31,3.92a103.85,103.85,0,0,0,9.12,7.24,103.85,103.85,0,0,0-7.24-9.12q-1.92-2.19-3.92-4.32c4.37-.09,8.75-.27,13.12-.59a149,149,0,0,0,18.32-2.33"/><path class="cls-2" d="M67.18,384H56.87c-1.07-12.45-9.37-18.88-19.81-18.88-11.12,0-20,7.37-20,21.56v32.94c0,14.2,8.84,21.56,19.95,21.56,10.45,0,18.75-6.43,19.82-18.88H67.18c-1.07,18.08-13,29.06-30.13,29.06-17.94,0-30.26-12.05-30.26-31.74V386.65c0-19.68,12.32-31.74,30.26-31.74C54.2,354.91,66.11,365.89,67.18,384Z"/><path class="cls-2" d="M83.25,356.25H93.56v63.34c0,14.2,8.83,21.56,20,21.56s20-7.36,20-21.56V356.25h10.31v63.34c0,19.69-12.32,31.74-30.26,31.74s-30.26-12.05-30.26-31.74Z"/><path class="cls-2" d="M228.4,356.25h10.31V450H228.52V378l-22.36,46.87h-9.64L174.17,378v72H164V356.25H174.3l27,56.78Z"/><path class="cls-2" d="M290.39,413.57H270.44V450h-10.3V356.25h30.26c21.69,0,30.26,12.05,30.26,28.66S312.08,413.57,290.39,413.57Zm0-47.14H270.44v37h19.95c14.46,0,19.68-8.3,19.68-18.48S304.85,366.43,290.39,366.43Z"/><path class="cls-2" d="M335.25,356.25h10.31v83.56h43V450H335.24Z"/><path class="cls-2" d="M411.56,439.81h43V450H401.25V356.25h53.29v10.18h-43V397.5h43v10.18h-43Z"/><path class="cls-2" d="M537.7,374.06V450H519.22V374.06H493.11V356.25h70.7v17.81Z"/><path class="cls-2" d="M641.87,356.25v60.4c0,20.75-12.86,34.68-35.35,34.68s-35.35-13.93-35.35-34.68v-60.4h18v60.4c0,10.84,7.63,16.87,17.41,16.87s17.4-6,17.4-16.87v-60.4Z"/><path class="cls-2" d="M652.18,420.4h18.48c1.07,7.9,7.23,13.12,16.2,13.12,7.9,0,13.39-2.95,13.39-9.37,0-5.23-3.08-8.17-9.64-9.91L674.81,410c-14.33-3.88-21.42-13.93-21.42-27.72,0-18.75,14.73-27.32,31.06-27.32,18.75,0,30.4,11,32.4,26.92H698.38c-1.61-6.29-8.17-9.11-14.2-9.11-7.49,0-12.85,2.95-12.85,9.51,0,5.49,4.28,7.9,9.37,9.24L696,395.62c14.47,3.89,22.23,12.72,22.23,28.53,0,16.87-11,27.18-31.33,27.18S653.11,439,652.18,420.4Z"/><path class="cls-2" d="M760.63,450V356.25H796c22.49,0,35.34,13.93,35.34,34.69v24.37c0,20.75-12.86,34.68-35.35,34.68Zm52.76-59.05c0-10.85-7.63-16.88-17.4-16.88H778.58v58.12H796c9.78,0,17.41-6,17.41-16.87Z"/><path class="cls-2" d="M863.87,393.75H903v17.81h-39.1v20.62H903V450h-57V356.25h57v17.81h-39.1Z"/><path class="cls-2" d="M912.34,420.4h18.48c1.07,7.9,7.23,13.12,16.2,13.12,7.9,0,13.39-2.95,13.39-9.37,0-5.23-3.08-8.17-9.64-9.91L935,410c-14.33-3.88-21.42-13.93-21.42-27.72,0-18.75,14.73-27.32,31.06-27.32,18.75,0,30.4,11,32.4,26.92H958.54c-1.61-6.29-8.17-9.11-14.2-9.11-7.49,0-12.85,2.95-12.85,9.51,0,5.49,4.28,7.9,9.37,9.24l15.27,4.15c14.46,3.89,22.22,12.72,22.22,28.53,0,16.87-11,27.18-31.33,27.18S913.28,439,912.34,420.4Z"/><path class="cls-2" d="M1008.61,393.75h39.1v17.81h-39.1v20.62h39.1V450h-57V356.25h57v17.81h-39.1Z"/><path class="cls-2" d="M1095.51,451.33c-22.5,0-35.35-13.93-35.35-34.68v-27c0-20.76,12.86-34.69,35.35-34.69s35.35,13.93,35.35,34.69v27C1130.86,437.4,1118,451.33,1095.51,451.33Zm17.41-61.73c0-10.85-7.63-16.88-17.41-16.88s-17.4,6-17.4,16.88v27c0,10.84,7.63,16.87,17.41,16.87s17.41-6,17.41-16.87Z"/><path class="cls-2" d="M1139.56,420.4H1158c1.07,7.9,7.23,13.12,16.2,13.12,7.9,0,13.39-2.95,13.39-9.37,0-5.23-3.08-8.17-9.64-9.91l-15.8-4.29c-14.32-3.88-21.42-13.93-21.42-27.72,0-18.75,14.73-27.32,31.07-27.32,18.74,0,30.39,11,32.4,26.92h-18.48c-1.61-6.29-8.17-9.11-14.19-9.11-7.5,0-12.86,2.95-12.86,9.51,0,5.49,4.29,7.9,9.38,9.24l15.26,4.15c14.46,3.89,22.22,12.72,22.22,28.53,0,16.87-11,27.18-31.33,27.18S1140.5,439,1139.56,420.4Z"/><polygon class="cls-1" points="855.7 6.11 751.58 279.16 691.71 278.99 730.98 189.95 660.25 6.28 719.97 6.28 758.54 124.75 760.67 124.71 796.36 6.13 855.7 6.11"/><path class="cls-1" d="M651.05,144.35c0,43.65-47.85,60-92.86,60s-91.73-17.27-91.77-60.28H525.6c0,13.45,18.61,18.53,32.66,18.51,13.79,0,31.69-3.67,31.69-16.67,0-16.35-22.25-18.73-57.2-27.81-36.28-9.51-62.12-25.39-62.16-59.56,0-43.42,42.3-58.29,87.53-58.36,44.74,0,85.61,14.82,85.66,58.21l-58.45.19c0-12.06-14.84-16.75-27.21-16.71s-27.1,3-27.1,15c.06,16.4,25,18.46,53.12,25.35,36,8.74,66.87,23.38,66.91,62.19"/><path class="cls-1" d="M433.22,197l-55.46.37.13-21.91-2.14,0c-9.24,18.6-27.74,28.83-56.44,28.91-48.65.08-90.8-39.84-90.84-102.73C228.42,38,266.87,0,315.77,0c27.1-.06,49.51,11.14,59.51,27.84l2.14-.06-.1-21.51H433ZM377,101.58c-.05-25.57-14.19-49.47-47.2-49.43S286.1,78.82,286.1,101.78c0,24.17,12.94,50.34,46.31,50.36C366.62,152,377,124.58,377,101.58"/><path class="cls-1" d="M197.44,100.31c0,7.56-1,19.5-1,19.5l-137.67.07c1.34,22.28,18.05,38.19,41.52,38.11,17,.06,28.05-6.32,33.43-18.11l59.74.08c-5.44,28.36-30,64.24-92.13,64.29C41.61,204.37.05,157.29,0,100.41,0,42.86,37.68.11,97.12,0c59.82,0,100.3,43.13,100.32,100.28M138.13,81.24c-.78-11.12-8-35-40.1-35-28.81,0-38.19,23.83-39.38,35Z"/><path class="cls-1" d="M586.83,281.08c-151.87-20.47-304.46-21.67-541-4.78l2.59-10.88c236.36-20.86,422.67-31.82,524.82-28.68,60.26,1.85,78.58,6.24,78.58,27.6,0,22.79-26.78,21.9-65,16.74"/><text class="cls-3" transform="translate(598.16 585.85) scale(0.96 1)">ยก</text></g></g></svg>