<svg xmlns="http://www.w3.org/2000/svg" viewBox="0 0 1276.58 416.97"><defs><style>.cls-1{fill:#fff;}.cls-2{fill:#ffed00;}</style></defs><g id="Capa_2" data-name="Capa 2"><g id="Capa_1-2" data-name="Capa 1"><path class="cls-1" d="M825.21,161.89l-15.82-2.81a2.6,2.6,0,0,1-1.93-1.94l-2.63-15.61c-.08-.49-.22-1-.59-1s-.51.49-.6,1l-2.9,15.62a2.65,2.65,0,0,1-2,2l-15.5,2.79c-.49.09-1,.23-1,.61s.5.51,1,.59l15.49,2.73a2.62,2.62,0,0,1,2,1.94l2.9,15.7c.09.49.23,1,.6,1s.51-.5.59-1l2.63-15.7a2.57,2.57,0,0,1,1.93-1.94l15.82-2.73c.49-.08,1-.22,1-.59s-.5-.51-1-.6"/><path class="cls-1" d="M854.72,238.25l-21-3.73a3.45,3.45,0,0,1-2.57-2.58l-3.49-20.71c-.11-.65-.29-1.32-.78-1.32s-.68.67-.8,1.31l-3.84,20.72a3.53,3.53,0,0,1-2.61,2.59l-20.56,3.71c-.65.12-1.31.3-1.31.8s.67.68,1.32.79l20.55,3.61a3.5,3.5,0,0,1,2.6,2.58l3.85,20.84c.12.65.31,1.31.8,1.31s.67-.67.78-1.32l3.5-20.83a3.4,3.4,0,0,1,2.56-2.57l21-3.63c.65-.11,1.31-.29,1.32-.78s-.67-.68-1.32-.79"/><path class="cls-1" d="M868.31,182.28a77.35,77.35,0,0,0-9.38-1.19c-2.24-.16-4.48-.25-6.73-.3.69-.72,1.36-1.46,2-2.21a54.59,54.59,0,0,0,3.7-4.67,56.19,56.19,0,0,0-4.67,3.7c-.75.66-1.48,1.33-2.21,2q-.06-3.37-.3-6.73a77.35,77.35,0,0,0-1.19-9.38,77.38,77.38,0,0,0-1.2,9.38c-.16,2.24-.25,4.48-.3,6.72-.72-.68-1.46-1.35-2.21-2a52.69,52.69,0,0,0-4.67-3.7,54.59,54.59,0,0,0,3.7,4.67c.66.75,1.33,1.48,2,2.21q-3.36.06-6.71.3a75.33,75.33,0,0,0-9.39,1.19,73.52,73.52,0,0,0,9.39,1.2q3.35.24,6.71.3c-.68.73-1.35,1.46-2,2.21a54.59,54.59,0,0,0-3.7,4.67,52.69,52.69,0,0,0,4.67-3.7c.75-.66,1.48-1.33,2.21-2q.06,3.36.3,6.72a73.6,73.6,0,0,0,1.2,9.38,75.41,75.41,0,0,0,1.19-9.38q.24-3.36.3-6.72c.73.68,1.46,1.35,2.21,2a56.19,56.19,0,0,0,4.67,3.7,54.59,54.59,0,0,0-3.7-4.67c-.66-.75-1.33-1.48-2-2.21q3.36-.06,6.72-.3a75.44,75.44,0,0,0,9.38-1.2"/><path class="cls-1" d="M1031.1,44.8l-15.28-15.44a76.8,76.8,0,0,0-109.42,0,78.76,78.76,0,0,0,0,110.57l15.27,15.44,54.72,55.3c1.59,1.62,3.25,3.13,5,4.56q2.13,2.58,4.51,5L1031.07,266l45.25-45.71c1.59-1.61,3.08-3.28,4.5-5,1.7-1.45,3.36-3,5-4.58l70-70.72a78.76,78.76,0,0,0,0-110.57,76.81,76.81,0,0,0-109.43,0Z"/><path class="cls-1" d="M1274.76,368.23l-29.07-5.16a4.77,4.77,0,0,1-3.55-3.58l-4.83-28.68c-.16-.9-.4-1.83-1.09-1.83s-.94.92-1.11,1.81l-5.32,28.7a4.9,4.9,0,0,1-3.61,3.59l-28.48,5.14c-.89.16-1.81.42-1.81,1.1s.92.94,1.82,1.1l28.47,5a4.87,4.87,0,0,1,3.61,3.57l5.32,28.87c.17.9.43,1.81,1.11,1.81s.93-.92,1.09-1.82l4.84-28.86a4.71,4.71,0,0,1,3.54-3.56l29.07-5c.9-.15,1.82-.4,1.82-1.08s-.92-.94-1.82-1.1"/><path class="cls-1" d="M1201.17,343.65l-18-3.2a2.92,2.92,0,0,1-2.19-2.21l-3-17.77c-.09-.56-.25-1.13-.67-1.13s-.59.56-.69,1.12l-3.3,17.78a3,3,0,0,1-2.23,2.22l-17.65,3.18c-.55.1-1.12.26-1.12.69s.57.58,1.13.68l17.64,3.1a3,3,0,0,1,2.23,2.21l3.3,17.89c.1.55.26,1.12.69,1.12s.57-.57.67-1.13l3-17.88a2.92,2.92,0,0,1,2.19-2.21l18-3.11c.56-.09,1.13-.25,1.13-.67s-.57-.58-1.12-.68"/><path class="cls-1" d="M1236,283.3a104.77,104.77,0,0,0-13-1.65q-4.65-.33-9.31-.42,1.42-1.5,2.79-3.06a75.5,75.5,0,0,0,5.13-6.47,73.59,73.59,0,0,0-6.47,5.13q-1.56,1.37-3.06,2.79-.09-4.67-.42-9.31a105,105,0,0,0-1.65-13,105,105,0,0,0-1.66,13c-.22,3.1-.35,6.2-.41,9.3-1-.94-2-1.87-3.06-2.78a73.59,73.59,0,0,0-6.47-5.13,71.77,71.77,0,0,0,5.13,6.47c.91,1,1.83,2.06,2.78,3.06-3.1.06-6.2.19-9.31.41a104.88,104.88,0,0,0-13,1.66,103,103,0,0,0,13,1.66c3.1.22,6.21.36,9.31.41-1,1-1.87,2-2.78,3.06a71.77,71.77,0,0,0-5.13,6.47,71.77,71.77,0,0,0,6.47-5.13c1-.91,2.05-1.83,3.06-2.78,0,3.1.19,6.21.41,9.31a103,103,0,0,0,1.66,13,104.88,104.88,0,0,0,1.66-13c.22-3.11.35-6.21.41-9.31,1,.94,2,1.87,3.06,2.78a73.59,73.59,0,0,0,6.47,5.13,75.5,75.5,0,0,0-5.13-6.47q-1.37-1.55-2.79-3.06c3.11-.06,6.21-.19,9.31-.42a102.91,102.91,0,0,0,13-1.65"/><path class="cls-1" d="M62.07,354.74H52.54c-1-11.5-8.66-17.44-18.3-17.44-10.27,0-18.44,6.8-18.44,19.92v30.43c0,13.12,8.16,19.92,18.43,19.92,9.65,0,17.32-5.94,18.31-17.44h9.52c-1,16.7-12,26.84-27.83,26.84-16.58,0-28-11.13-27.95-29.32V357.22c0-18.19,11.38-29.32,28-29.32C50.07,327.9,61.08,338,62.07,354.74Z"/><path class="cls-1" d="M76.91,329.13h9.53v58.52c0,13.12,8.16,19.92,18.43,19.92s18.43-6.8,18.43-19.92V329.13h9.53v58.52c0,18.19-11.38,29.32-27.95,29.32s-28-11.13-28-29.32Z"/><path class="cls-1" d="M211,329.13h9.52v86.61h-9.4V349.17l-20.66,43.31h-8.91l-20.65-43.31v66.57h-9.4V329.13H161l25,52.46Z"/><path class="cls-1" d="M268.28,382.08H249.85v33.66h-9.53V329.13h28c20,0,27.95,11.14,27.95,26.48S288.32,382.08,268.28,382.08Zm0-43.54H249.85v34.14h18.43c13.36,0,18.19-7.67,18.19-17.07S281.64,338.54,268.28,338.54Z"/><path class="cls-1" d="M309.73,329.13h9.52v77.2H359v9.41H309.72Z"/><path class="cls-1" d="M380.23,406.33h39.71v9.41H370.71V329.13H420v9.41H380.24v28.7H420v9.4h-39.7Z"/><path class="cls-1" d="M496.77,345.59v70.15H479.69V345.59H455.57V329.13h65.31v16.46Z"/><path class="cls-1" d="M593,329.13v55.8c0,19.18-11.88,32-32.66,32s-32.66-12.86-32.66-32v-55.8h16.58v55.8c0,10,7.05,15.59,16.08,15.59s16.08-5.57,16.08-15.59v-55.8Z"/><path class="cls-1" d="M602.53,388.39H619.6c1,7.3,6.68,12.13,15,12.13,7.3,0,12.37-2.72,12.37-8.66,0-4.83-2.84-7.55-8.9-9.16l-14.6-4c-13.24-3.58-19.79-12.86-19.79-25.61,0-17.32,13.61-25.23,28.7-25.23,17.32,0,28.08,10.14,29.93,24.86H645.21c-1.48-5.81-7.54-8.41-13.11-8.41-6.93,0-11.87,2.72-11.88,8.78,0,5.08,4,7.3,8.66,8.54L643,365.51c13.36,3.58,20.53,11.75,20.53,26.35,0,15.59-10.15,25.11-28.95,25.11S603.4,405.59,602.53,388.39Z"/><path class="cls-1" d="M702.73,415.74V329.13h32.65c20.79,0,32.66,12.87,32.66,32.05v22.51c0,19.18-11.88,32.05-32.66,32.05Zm48.74-54.56c0-10-7.05-15.59-16.08-15.59H719.31v53.69h16.08c9,0,16.08-5.57,16.08-15.59Z"/><path class="cls-1" d="M798.11,363.77h36.12v16.46H798.11v19h36.12v16.46h-52.7V329.13h52.69v16.46H798.11Z"/><path class="cls-1" d="M842.89,388.39H860c1,7.3,6.68,12.13,15,12.13,7.3,0,12.37-2.72,12.37-8.66,0-4.83-2.84-7.55-8.91-9.16l-14.59-4C850.56,375.16,844,365.88,844,353.13c0-17.32,13.61-25.23,28.7-25.23,17.32,0,28.08,10.14,29.93,24.86H885.57c-1.48-5.81-7.54-8.41-13.11-8.41-6.93,0-11.88,2.72-11.88,8.78,0,5.08,4,7.3,8.66,8.54l14.1,3.84c13.36,3.58,20.54,11.75,20.54,26.35,0,15.59-10.15,25.11-29,25.11S843.76,405.59,842.89,388.39Z"/><path class="cls-1" d="M931.84,363.77H968v16.46H931.83v19H968v16.46H915.26V329.13H968v16.46H931.84Z"/><path class="cls-1" d="M1012.12,417c-20.79,0-32.66-12.86-32.66-32v-25c0-19.18,11.88-32,32.66-32s32.66,12.86,32.66,32v25C1044.77,404.11,1032.9,417,1012.12,417Zm16.08-57c0-10-7.05-15.59-16.08-15.59S996,349.92,996,359.94v25c0,10,7.05,15.59,16.08,15.59s16.08-5.57,16.08-15.59Z"/><path class="cls-1" d="M1052.82,388.39h17.07c1,7.3,6.68,12.13,15,12.13,7.3,0,12.37-2.72,12.37-8.66,0-4.83-2.85-7.55-8.91-9.16l-14.6-4c-13.23-3.58-19.79-12.86-19.79-25.61,0-17.32,13.61-25.23,28.71-25.23,17.31,0,28.08,10.14,29.93,24.86H1095.5c-1.49-5.81-7.55-8.41-13.11-8.41-6.93,0-11.88,2.72-11.88,8.78,0,5.08,4,7.3,8.66,8.54l14.1,3.84c13.36,3.58,20.53,11.75,20.53,26.35,0,15.59-10.14,25.11-28.94,25.11S1053.68,405.59,1052.82,388.39Z"/><polygon class="cls-2" points="790.56 5.65 694.37 257.91 639.05 257.75 675.33 175.49 610 5.8 665.16 5.8 700.8 115.25 702.76 115.22 735.74 5.66 790.56 5.65"/><path class="cls-2" d="M601.5,133.36c0,40.33-44.21,55.4-85.8,55.43s-84.75-16-84.78-55.69h54.67c0,12.42,17.2,17.12,30.18,17.1,12.73,0,29.27-3.4,29.27-15.4,0-15.11-20.56-17.31-52.84-25.7-33.52-8.79-57.39-23.46-57.43-55C434.75,14,473.85.22,515.63.16c41.34,0,79.1,13.69,79.14,53.78l-54,.17c0-11.14-13.72-15.48-25.15-15.44s-25,2.78-25,13.81c0,15.15,23.07,17.06,49.07,23.42,33.26,8.08,61.78,21.61,61.83,57.46"/><path class="cls-2" d="M400.24,182l-51.23.34.12-20.24-2,0c-8.54,17.19-25.63,26.64-52.15,26.71-44.94.08-83.88-36.81-83.92-94.91C211,35.1,246.55,0,291.73,0c25,0,45.75,10.3,55,25.72l2-.06L348.6,5.8h51.45ZM348.29,93.85c0-23.63-13.1-45.71-43.6-45.67S264.32,72.82,264.32,94c0,22.33,11.95,46.51,42.79,46.53,31.6-.1,41.18-25.47,41.18-46.71"/><path class="cls-2" d="M182.41,92.67c0,7-.95,18-.95,18l-127.19.06C55.5,131.34,70.94,146,92.63,146c15.75.05,25.92-5.84,30.88-16.74l55.2.08c-5,26.2-27.71,59.34-85.12,59.39C38.44,188.82,0,145.31,0,92.77,0,39.6,34.81.1,89.73,0,145,0,182.39,39.87,182.41,92.67M127.62,75.05c-.72-10.27-7.36-32.31-37.05-32.31-26.62,0-35.29,22-36.38,32.31Z"/><path class="cls-2" d="M542.16,259.68c-140.31-18.91-281.29-20-499.81-4.41l2.39-10.05c218.37-19.28,390.5-29.4,484.88-26.5,55.66,1.71,72.6,5.76,72.6,25.49,0,21.06-24.75,20.24-60.06,15.47"/></g></g></svg>